<svg xmlns="http://www.w3.org/2000/svg" width="38" height="40" fill="none"><path fill="#FFC5C8" stroke="#FFEDEE" stroke-width="3" d="M23.75 3.01a9.5 9.5 0 0 0-9.5 0L6.662 7.392a9.5 9.5 0 0 0-4.75 8.227v8.762a9.5 9.5 0 0 0 4.75 8.227l7.588 4.382a9.5 9.5 0 0 0 9.5 0l7.588-4.382a9.5 9.5 0 0 0 4.75-8.227V15.62a9.5 9.5 0 0 0-4.75-8.227L23.75 3.01Z"/><g style="mix-blend-mode:overlay"><path fill="#000" fill-rule="evenodd" d="M10.667 18.101V25h16.666v-6.899l-7.675 5.028-.658.43-.657-.43-7.676-5.028ZM26.133 15H11.867v1.018L19 20.69l7.133-4.672V15Z" clip-rule="evenodd"/><path fill="#fff" d="M10.667 15v1.667L19 22.125l8.333-5.458V15H10.667Z"/></g></svg>